<svg version="1.1" id="Layer_1" xmlns="http://www.w3.org/2000/svg" xmlns:xlink="http://www.w3.org/1999/xlink" x="0px" y="0px"
	 width="100%" viewBox="0 0 1024 1024" enable-background="new 0 0 1024 1024" xml:space="preserve">
<path fill="#000000" opacity="1.000000" stroke="none" 
	d="
M228.135941,355.512634 
	C243.890564,361.009003 254.715057,375.389404 255.426056,390.147217 
	C256.351349,409.353058 244.874252,423.987061 230.497879,429.587311 
	C221.930801,432.924591 213.264832,433.233185 204.659927,430.238251 
	C201.081268,428.992676 198.872650,429.764038 196.359314,432.364014 
	C179.337997,449.972046 162.171814,467.440002 145.081177,484.981171 
	C140.507004,489.675995 136.652298,494.911285 134.451584,501.144043 
	C129.471786,515.247620 133.792267,527.413818 143.101715,538.033325 
	C158.599014,555.711548 176.086014,571.467346 192.497314,588.267090 
	C193.894058,589.696899 195.348755,591.077576 196.655670,592.585815 
	C198.405365,594.605103 200.255341,595.030212 202.854904,594.055420 
	C225.660767,585.504456 250.343353,601.047424 254.981247,624.872803 
	C259.274780,646.929260 241.010727,669.626038 218.543625,670.506531 
	C193.395905,671.492249 176.609818,651.643982 176.750381,630.577393 
	C176.786240,625.205933 178.036697,619.979126 180.403488,615.167664 
	C181.839630,612.247925 181.203857,610.469360 178.987411,608.261414 
	C160.102081,589.448669 141.392471,570.459595 122.518921,551.634888 
	C113.819283,542.957764 107.105820,533.120361 105.279182,520.815491 
	C103.031807,505.676331 104.641182,491.225525 115.516548,479.189240 
	C130.268066,462.863159 146.359314,447.853546 161.747574,432.153107 
	C167.228226,426.561249 172.727966,420.985870 178.324982,415.511322 
	C180.557373,413.327728 181.301346,411.484283 180.029114,408.141541 
	C170.583359,383.323364 184.039261,359.053131 210.021179,353.995880 
	C215.919189,352.847900 221.961472,353.349579 228.135941,355.512634 
z"/>
<path fill="#000000" opacity="1.000000" stroke="none" 
	d="
M810.604736,464.726013 
	C814.605164,453.656128 814.606628,453.544739 825.778381,453.692749 
	C840.052124,453.881836 836.619385,451.414032 841.458313,464.872284 
	C851.301025,492.247101 861.026489,519.664124 870.741150,547.084656 
	C871.484558,549.183105 872.946960,551.261902 871.630005,554.291992 
	C865.875305,554.291992 859.927002,554.339294 853.980103,554.268127 
	C851.680908,554.240662 851.116760,552.337036 850.523438,550.575745 
	C848.931458,545.849792 847.197205,541.165894 845.790894,536.385437 
	C844.897339,533.347961 843.293396,532.138428 840.062561,532.194702 
	C830.403625,532.362854 820.737671,532.366821 811.079163,532.185852 
	C807.869324,532.125732 806.235596,533.294861 805.292664,536.295105 
	C803.798523,541.049622 801.872559,545.668518 800.377808,550.422852 
	C799.500793,553.212402 798.055054,554.514160 795.018005,554.408813 
	C789.886658,554.230774 784.744690,554.359985 778.300293,554.359985 
	C789.252380,524.004150 799.877686,494.553864 810.604736,464.726013 
M817.475098,499.814636 
	C816.208740,504.570740 813.643311,508.955139 813.145569,514.124756 
	C821.560242,514.124756 829.696777,514.124756 838.507019,514.124756 
	C834.300842,501.402496 830.319824,489.361450 825.891418,475.967194 
	C822.888916,484.511658 820.329041,491.796417 817.475098,499.814636 
z"/>
<path fill="#000000" opacity="1.000000" stroke="none" 
	d="
M292.153137,452.876373 
	C307.228638,453.263153 320.191803,457.275818 329.054749,469.928345 
	C332.728485,475.172821 335.015411,480.995087 335.911072,488.261078 
	C329.580109,488.261078 323.513000,488.280396 317.446136,488.247711 
	C315.894745,488.239349 315.072784,487.278625 314.707245,485.821198 
	C311.644989,473.611481 300.898682,470.269836 292.773285,470.595856 
	C281.167358,471.061554 272.538025,476.851746 268.280762,487.981750 
	C264.216492,498.607178 264.222168,509.482483 267.684021,520.261475 
	C271.276031,531.445740 279.248932,537.601746 290.834991,538.505676 
	C298.509125,539.104309 310.089508,535.051147 314.311249,523.966614 
	C314.886871,522.455261 315.616699,521.171753 317.379578,521.156250 
	C323.327972,521.103882 329.277069,521.136353 335.846588,521.136353 
	C334.168793,531.976196 329.285858,540.286438 321.257965,546.398743 
	C305.884125,558.104187 288.802612,558.519714 271.650085,551.479797 
	C255.044449,544.664368 248.049973,530.533203 245.585175,513.516357 
	C243.969788,502.363861 244.997726,491.594727 249.488174,481.294769 
	C256.679260,464.800232 269.219086,455.401337 287.264404,453.598663 
	C288.752228,453.450073 290.223724,453.137939 292.153137,452.876373 
z"/>
<path fill="#000000" opacity="1.000000" stroke="none" 
	d="
M877.645264,544.961243 
	C877.648010,516.665283 877.759827,488.864319 877.548523,461.065796 
	C877.511047,456.141998 878.718384,454.235657 883.917908,454.555115 
	C896.848694,455.349548 909.881042,453.425079 922.764893,455.649170 
	C940.020630,458.627991 948.767212,470.813019 948.336182,490.931427 
	C948.030090,505.216766 937.322266,516.017212 921.669312,518.515930 
	C915.509277,519.499329 909.391724,519.428101 903.270630,519.246765 
	C898.802551,519.114380 897.032043,520.302551 897.248169,525.084717 
	C897.616089,533.224548 897.189087,541.397339 897.388062,549.549133 
	C897.479004,553.274902 896.103760,554.712952 892.459412,554.392151 
	C890.477539,554.217773 888.466797,554.388794 886.469360,554.370483 
	C876.738831,554.281311 877.722717,555.207581 877.645264,544.961243 
M928.751282,484.805695 
	C927.992371,477.375824 925.226074,474.235352 918.119629,472.298798 
	C912.217224,470.690247 906.230469,471.595459 900.281189,471.401031 
	C898.501404,471.342834 897.415344,472.248444 897.410217,474.081299 
	C897.384216,483.336670 897.398193,492.592133 897.398193,501.912109 
	C902.591187,502.701111 907.244873,502.943115 911.844910,502.446411 
	C924.788635,501.048737 928.508118,497.252014 928.751282,484.805695 
z"/>
<path fill="#000000" opacity="1.000000" stroke="none" 
	d="
M593.656189,523.367065 
	C590.287964,523.501343 590.140747,525.193604 590.813477,527.505798 
	C592.939392,534.813171 597.741943,539.383118 605.243958,540.174011 
	C611.285400,540.810791 616.862122,539.155212 619.876465,533.061768 
	C620.970581,530.850098 622.757812,530.315308 624.826782,530.729126 
	C629.684814,531.701050 634.765808,531.420959 639.994690,533.483215 
	C637.389099,542.725769 631.783081,549.462341 623.050293,552.954651 
	C602.473816,561.183472 575.829712,553.429932 571.235901,526.361145 
	C567.625732,505.088074 575.537415,485.630585 595.761169,480.631439 
	C625.358887,473.315155 643.274780,494.148651 641.295776,520.456055 
	C641.044006,523.803101 638.637268,523.311951 636.557251,523.317688 
	C622.397217,523.356445 608.237000,523.346558 593.656189,523.367065 
M594.109741,499.624390 
	C593.319458,500.882629 592.375610,502.071014 591.765991,503.411407 
	C589.359070,508.704407 590.070251,509.802582 595.793823,509.814026 
	C601.428284,509.825317 607.065125,509.890564 612.696472,509.751678 
	C615.558167,509.681122 618.582886,510.466248 621.466431,508.804932 
	C620.447632,502.428253 617.648071,497.672119 611.534119,495.502075 
	C605.210266,493.257507 599.483398,494.327576 594.109741,499.624390 
z"/>
<path fill="#000000" opacity="1.000000" stroke="none" 
	d="
M365.308044,480.809601 
	C374.868134,478.784363 383.912781,478.859924 392.557648,482.799774 
	C404.736664,488.350281 410.724945,498.386139 412.331757,511.287659 
	C414.016602,524.815613 411.753510,537.381165 401.047699,546.787903 
	C389.134033,557.255981 375.070007,558.533264 360.913300,552.770447 
	C347.128052,547.158813 340.711212,535.508850 339.710144,520.965027 
	C338.863068,508.658173 341.871796,497.568237 351.150879,488.730194 
	C355.113098,484.956268 359.793701,482.592316 365.308044,480.809601 
M369.548767,538.153992 
	C379.234833,541.405579 387.821838,537.934204 391.389343,529.107422 
	C394.516571,521.370056 394.530884,513.467468 391.404694,505.748749 
	C387.318481,495.659790 372.617462,492.634521 364.936920,500.174805 
	C356.828796,508.134766 356.470825,532.145996 369.548767,538.153992 
z"/>
<path fill="#000000" opacity="1.000000" stroke="none" 
	d="
M484.561981,495.840881 
	C486.694397,501.265686 486.862335,506.649963 486.990967,511.917023 
	C487.291809,524.235229 487.025146,536.566345 487.206177,548.889038 
	C487.265259,552.909729 485.944275,554.420471 481.755219,554.446411 
	C467.651489,554.533569 467.652893,554.675354 467.651367,540.745667 
	C467.650269,531.085449 467.725372,521.424377 467.621399,511.765320 
	C467.535461,503.784424 464.771637,499.262512 459.176483,497.416412 
	C449.076874,494.084137 439.548889,501.366730 439.392670,512.785950 
	C439.226349,524.942261 439.217743,537.104675 439.418610,549.259827 
	C439.483795,553.206238 438.136658,554.633667 434.244019,554.415344 
	C429.952637,554.174561 425.637268,554.360413 421.890839,554.360413 
	C420.345032,552.921326 420.588776,551.706421 420.588898,550.565063 
	C420.591492,529.246033 420.717590,507.925995 420.521851,486.608826 
	C420.479858,482.035919 421.874481,480.105377 426.471405,480.703400 
	C427.781158,480.873810 429.132812,480.720306 430.465240,480.718842 
	C437.700439,480.710907 437.700439,480.711273 438.958588,488.171448 
	C448.615479,479.403931 459.489075,477.418610 471.336456,481.852966 
	C477.780273,484.264832 481.950867,489.109314 484.561981,495.840881 
z"/>
<path fill="#000000" opacity="1.000000" stroke="none" 
	d="
M562.899536,552.658264 
	C557.182129,555.612366 551.347351,554.267761 545.656189,554.016785 
	C542.920654,553.896118 543.702942,550.929504 543.692078,549.091858 
	C543.616394,536.263489 543.748291,523.433411 543.604797,510.606201 
	C543.511719,502.284332 539.097107,497.207428 531.777039,496.449799 
	C525.071228,495.755737 518.081421,501.011200 516.328186,508.029633 
	C515.639038,510.788239 515.303406,513.559082 515.321777,516.418396 
	C515.390503,527.080811 515.166931,537.748413 515.431519,548.404663 
	C515.542236,552.864075 514.281311,554.503601 509.587585,554.464294 
	C496.658661,554.356018 496.653290,554.555542 496.652557,541.542236 
	C496.651520,523.215393 496.790955,504.886932 496.565308,486.562897 
	C496.508392,481.940887 497.985260,480.128143 502.548218,480.706909 
	C504.187286,480.914825 505.890747,480.872009 507.539337,480.699585 
	C512.585571,480.171875 516.774597,480.583069 515.258606,488.498444 
	C523.703491,480.760803 532.452881,478.228363 542.672485,480.532928 
	C553.572388,482.990875 561.240356,491.425537 562.332886,502.802307 
	C563.912720,519.252808 563.143005,535.733826 562.899536,552.658264 
z"/>
<path fill="#000000" opacity="1.000000" stroke="none" 
	d="
M662.437500,549.702637 
	C642.598267,535.827881 642.268188,499.197906 662.456909,485.575623 
	C678.227234,474.934631 708.825806,476.773193 717.545959,502.471375 
	C717.872864,503.434631 718.242798,504.326965 717.619141,506.061249 
	C712.163757,506.328979 706.438965,506.652344 700.710083,506.862457 
	C699.206665,506.917572 698.386597,505.715851 697.700134,504.539246 
	C694.009521,498.213654 688.848938,494.851898 681.230774,496.056000 
	C673.038147,497.350891 669.311218,503.017639 667.871399,510.300049 
	C666.678894,516.331360 666.577576,522.589600 668.723083,528.527893 
	C670.913452,534.590332 675.077393,538.722168 681.696655,539.552185 
	C688.428162,540.396301 693.911255,537.932129 697.319702,532.006226 
	C698.909790,529.241699 700.851929,528.352661 703.784973,528.682617 
	C708.383972,529.200073 712.992310,529.634644 718.226624,530.168640 
	C716.525146,539.720093 711.449097,546.820068 703.500183,551.083069 
	C689.933228,558.359070 676.102966,557.973267 662.437500,549.702637 
z"/>
<path fill="#000000" opacity="1.000000" stroke="none" 
	d="
M752.742371,462.964569 
	C755.522949,467.149139 754.145996,471.544983 754.225037,475.755981 
	C754.292175,479.330719 755.254822,480.988403 759.072205,480.732605 
	C762.716736,480.488434 766.392700,480.756561 770.051880,480.672058 
	C772.803345,480.608521 773.789917,481.910675 774.046997,484.554962 
	C775.146362,495.862213 774.764648,496.316345 763.493286,496.367188 
	C752.995178,496.414551 754.443848,495.381287 754.324524,505.326691 
	C754.232727,512.980774 754.108093,520.637207 754.200500,528.290100 
	C754.297974,536.362427 756.729553,538.653748 764.688477,538.655151 
	C774.249084,538.656860 774.119385,538.656616 774.097351,548.216980 
	C774.088501,552.051758 772.781494,553.846069 768.864563,554.598450 
	C764.035034,555.526123 759.221375,555.752869 754.490112,555.010681 
	C741.239929,552.932068 735.293396,545.535706 734.805359,530.510254 
	C734.492188,520.867065 734.546143,511.204712 734.725037,501.556335 
	C734.795288,497.763611 733.800598,496.041016 729.692566,496.249115 
	C727.452881,496.362549 723.894409,497.683502 723.114685,494.615112 
	C722.068481,490.498627 721.857727,485.926758 723.355591,481.845856 
	C724.089233,479.847137 726.977722,480.586182 728.865234,480.743378 
	C733.083862,481.094727 734.778503,479.710510 734.747070,475.178009 
	C734.659851,462.613525 734.843689,462.606567 747.295349,462.660461 
	C748.957458,462.667633 750.619263,462.766449 752.742371,462.964569 
z"/>
<path fill="#000000" opacity="1.000000" stroke="none" 
	d="
M961.127319,454.661041 
	C964.278015,454.655304 966.943542,454.647369 969.609009,454.658844 
	C976.285950,454.687592 976.318787,454.691132 976.321411,461.216583 
	C976.331421,486.205658 976.318054,511.194763 976.314209,536.183838 
	C976.313538,540.681824 976.178162,545.185547 976.362854,549.675964 
	C976.500610,553.025818 975.402527,554.336487 971.842224,554.438293 
	C956.651550,554.872803 956.654358,554.979370 956.655762,539.810242 
	C956.658203,513.321777 956.656494,486.833374 956.670532,460.344940 
	C956.672058,457.559540 956.070312,454.285706 961.127319,454.661041 
z"/>
</svg>